<?xml version="1.0" encoding="utf-8" standalone="no"?>
<!DOCTYPE svg PUBLIC "-//W3C//DTD SVG 1.1//EN"
  "http://www.w3.org/Graphics/SVG/1.1/DTD/svg11.dtd">
<!-- Created with matplotlib (https://matplotlib.org/) -->
<svg height="488.27625pt" version="1.1" viewBox="0 0 336.34375 488.27625" width="336.34375pt" xmlns="http://www.w3.org/2000/svg" xmlns:xlink="http://www.w3.org/1999/xlink">
 <metadata>
  <rdf:RDF xmlns:cc="http://creativecommons.org/ns#" xmlns:dc="http://purl.org/dc/elements/1.1/" xmlns:rdf="http://www.w3.org/1999/02/22-rdf-syntax-ns#">
   <cc:Work>
    <dc:type rdf:resource="http://purl.org/dc/dcmitype/StillImage"/>
    <dc:date>2021-05-31T19:29:53.053926</dc:date>
    <dc:format>image/svg+xml</dc:format>
    <dc:creator>
     <cc:Agent>
      <dc:title>Matplotlib v3.3.3, https://matplotlib.org/</dc:title>
     </cc:Agent>
    </dc:creator>
   </cc:Work>
  </rdf:RDF>
 </metadata>
 <defs>
  <style type="text/css">*{stroke-linecap:butt;stroke-linejoin:round;}</style>
 </defs>
 <g id="figure_1">
  <g id="patch_1">
   <path d="M 0 488.27625 
L 336.34375 488.27625 
L 336.34375 0 
L 0 0 
z
" style="fill:#ffffff;"/>
  </g>
  <g id="axes_1">
   <g id="patch_2">
    <path d="M 43.78125 208.8 
L 322.78125 208.8 
L 322.78125 7.2 
L 43.78125 7.2 
z
" style="fill:#ffffff;"/>
   </g>
   <g id="matplotlib.axis_1">
    <g id="xtick_1">
     <g id="line2d_1">
      <defs>
       <path d="M 0 0 
L 0 3.5 
" id="mf3adc7ae40" style="stroke:#000000;stroke-width:0.8;"/>
      </defs>
      <g>
       <use style="stroke:#000000;stroke-width:0.8;" x="43.78125" xlink:href="#mf3adc7ae40" y="208.8"/>
      </g>
     </g>
    </g>
    <g id="xtick_2">
     <g id="line2d_2">
      <g>
       <use style="stroke:#000000;stroke-width:0.8;" x="99.58125" xlink:href="#mf3adc7ae40" y="208.8"/>
      </g>
     </g>
    </g>
    <g id="xtick_3">
     <g id="line2d_3">
      <g>
       <use style="stroke:#000000;stroke-width:0.8;" x="155.38125" xlink:href="#mf3adc7ae40" y="208.8"/>
      </g>
     </g>
    </g>
    <g id="xtick_4">
     <g id="line2d_4">
      <g>
       <use style="stroke:#000000;stroke-width:0.8;" x="211.18125" xlink:href="#mf3adc7ae40" y="208.8"/>
      </g>
     </g>
    </g>
    <g id="xtick_5">
     <g id="line2d_5">
      <g>
       <use style="stroke:#000000;stroke-width:0.8;" x="266.98125" xlink:href="#mf3adc7ae40" y="208.8"/>
      </g>
     </g>
    </g>
    <g id="xtick_6">
     <g id="line2d_6">
      <g>
       <use style="stroke:#000000;stroke-width:0.8;" x="322.78125" xlink:href="#mf3adc7ae40" y="208.8"/>
      </g>
     </g>
    </g>
   </g>
   <g id="matplotlib.axis_2">
    <g id="ytick_1">
     <g id="line2d_7">
      <defs>
       <path d="M 0 0 
L -3.5 0 
" id="mcac117fc26" style="stroke:#000000;stroke-width:0.8;"/>
      </defs>
      <g>
       <use style="stroke:#000000;stroke-width:0.8;" x="43.78125" xlink:href="#mcac117fc26" y="208.8"/>
      </g>
     </g>
     <g id="text_1">
      <!-- 0.0 -->
      <g transform="translate(20.878125 212.599219)scale(0.1 -0.1)">
       <defs>
        <path d="M 31.78125 66.40625 
Q 24.171875 66.40625 20.328125 58.90625 
Q 16.5 51.421875 16.5 36.375 
Q 16.5 21.390625 20.328125 13.890625 
Q 24.171875 6.390625 31.78125 6.390625 
Q 39.453125 6.390625 43.28125 13.890625 
Q 47.125 21.390625 47.125 36.375 
Q 47.125 51.421875 43.28125 58.90625 
Q 39.453125 66.40625 31.78125 66.40625 
z
M 31.78125 74.21875 
Q 44.046875 74.21875 50.515625 64.515625 
Q 56.984375 54.828125 56.984375 36.375 
Q 56.984375 17.96875 50.515625 8.265625 
Q 44.046875 -1.421875 31.78125 -1.421875 
Q 19.53125 -1.421875 13.0625 8.265625 
Q 6.59375 17.96875 6.59375 36.375 
Q 6.59375 54.828125 13.0625 64.515625 
Q 19.53125 74.21875 31.78125 74.21875 
z
" id="DejaVuSans-48"/>
        <path d="M 10.6875 12.40625 
L 21 12.40625 
L 21 0 
L 10.6875 0 
z
" id="DejaVuSans-46"/>
       </defs>
       <use xlink:href="#DejaVuSans-48"/>
       <use x="63.623047" xlink:href="#DejaVuSans-46"/>
       <use x="95.410156" xlink:href="#DejaVuSans-48"/>
      </g>
     </g>
    </g>
    <g id="ytick_2">
     <g id="line2d_8">
      <g>
       <use style="stroke:#000000;stroke-width:0.8;" x="43.78125" xlink:href="#mcac117fc26" y="172.145455"/>
      </g>
     </g>
     <g id="text_2">
      <!-- 0.2 -->
      <g transform="translate(20.878125 175.944673)scale(0.1 -0.1)">
       <defs>
        <path d="M 19.1875 8.296875 
L 53.609375 8.296875 
L 53.609375 0 
L 7.328125 0 
L 7.328125 8.296875 
Q 12.9375 14.109375 22.625 23.890625 
Q 32.328125 33.6875 34.8125 36.53125 
Q 39.546875 41.84375 41.421875 45.53125 
Q 43.3125 49.21875 43.3125 52.78125 
Q 43.3125 58.59375 39.234375 62.25 
Q 35.15625 65.921875 28.609375 65.921875 
Q 23.96875 65.921875 18.8125 64.3125 
Q 13.671875 62.703125 7.8125 59.421875 
L 7.8125 69.390625 
Q 13.765625 71.78125 18.9375 73 
Q 24.125 74.21875 28.421875 74.21875 
Q 39.75 74.21875 46.484375 68.546875 
Q 53.21875 62.890625 53.21875 53.421875 
Q 53.21875 48.921875 51.53125 44.890625 
Q 49.859375 40.875 45.40625 35.40625 
Q 44.1875 33.984375 37.640625 27.21875 
Q 31.109375 20.453125 19.1875 8.296875 
z
" id="DejaVuSans-50"/>
       </defs>
       <use xlink:href="#DejaVuSans-48"/>
       <use x="63.623047" xlink:href="#DejaVuSans-46"/>
       <use x="95.410156" xlink:href="#DejaVuSans-50"/>
      </g>
     </g>
    </g>
    <g id="ytick_3">
     <g id="line2d_9">
      <g>
       <use style="stroke:#000000;stroke-width:0.8;" x="43.78125" xlink:href="#mcac117fc26" y="135.490909"/>
      </g>
     </g>
     <g id="text_3">
      <!-- 0.4 -->
      <g transform="translate(20.878125 139.290128)scale(0.1 -0.1)">
       <defs>
        <path d="M 37.796875 64.3125 
L 12.890625 25.390625 
L 37.796875 25.390625 
z
M 35.203125 72.90625 
L 47.609375 72.90625 
L 47.609375 25.390625 
L 58.015625 25.390625 
L 58.015625 17.1875 
L 47.609375 17.1875 
L 47.609375 0 
L 37.796875 0 
L 37.796875 17.1875 
L 4.890625 17.1875 
L 4.890625 26.703125 
z
" id="DejaVuSans-52"/>
       </defs>
       <use xlink:href="#DejaVuSans-48"/>
       <use x="63.623047" xlink:href="#DejaVuSans-46"/>
       <use x="95.410156" xlink:href="#DejaVuSans-52"/>
      </g>
     </g>
    </g>
    <g id="ytick_4">
     <g id="line2d_10">
      <g>
       <use style="stroke:#000000;stroke-width:0.8;" x="43.78125" xlink:href="#mcac117fc26" y="98.836364"/>
      </g>
     </g>
     <g id="text_4">
      <!-- 0.6 -->
      <g transform="translate(20.878125 102.635582)scale(0.1 -0.1)">
       <defs>
        <path d="M 33.015625 40.375 
Q 26.375 40.375 22.484375 35.828125 
Q 18.609375 31.296875 18.609375 23.390625 
Q 18.609375 15.53125 22.484375 10.953125 
Q 26.375 6.390625 33.015625 6.390625 
Q 39.65625 6.390625 43.53125 10.953125 
Q 47.40625 15.53125 47.40625 23.390625 
Q 47.40625 31.296875 43.53125 35.828125 
Q 39.65625 40.375 33.015625 40.375 
z
M 52.59375 71.296875 
L 52.59375 62.3125 
Q 48.875 64.0625 45.09375 64.984375 
Q 41.3125 65.921875 37.59375 65.921875 
Q 27.828125 65.921875 22.671875 59.328125 
Q 17.53125 52.734375 16.796875 39.40625 
Q 19.671875 43.65625 24.015625 45.921875 
Q 28.375 48.1875 33.59375 48.1875 
Q 44.578125 48.1875 50.953125 41.515625 
Q 57.328125 34.859375 57.328125 23.390625 
Q 57.328125 12.15625 50.6875 5.359375 
Q 44.046875 -1.421875 33.015625 -1.421875 
Q 20.359375 -1.421875 13.671875 8.265625 
Q 6.984375 17.96875 6.984375 36.375 
Q 6.984375 53.65625 15.1875 63.9375 
Q 23.390625 74.21875 37.203125 74.21875 
Q 40.921875 74.21875 44.703125 73.484375 
Q 48.484375 72.75 52.59375 71.296875 
z
" id="DejaVuSans-54"/>
       </defs>
       <use xlink:href="#DejaVuSans-48"/>
       <use x="63.623047" xlink:href="#DejaVuSans-46"/>
       <use x="95.410156" xlink:href="#DejaVuSans-54"/>
      </g>
     </g>
    </g>
    <g id="ytick_5">
     <g id="line2d_11">
      <g>
       <use style="stroke:#000000;stroke-width:0.8;" x="43.78125" xlink:href="#mcac117fc26" y="62.181818"/>
      </g>
     </g>
     <g id="text_5">
      <!-- 0.8 -->
      <g transform="translate(20.878125 65.981037)scale(0.1 -0.1)">
       <defs>
        <path d="M 31.78125 34.625 
Q 24.75 34.625 20.71875 30.859375 
Q 16.703125 27.09375 16.703125 20.515625 
Q 16.703125 13.921875 20.71875 10.15625 
Q 24.75 6.390625 31.78125 6.390625 
Q 38.8125 6.390625 42.859375 10.171875 
Q 46.921875 13.96875 46.921875 20.515625 
Q 46.921875 27.09375 42.890625 30.859375 
Q 38.875 34.625 31.78125 34.625 
z
M 21.921875 38.8125 
Q 15.578125 40.375 12.03125 44.71875 
Q 8.5 49.078125 8.5 55.328125 
Q 8.5 64.0625 14.71875 69.140625 
Q 20.953125 74.21875 31.78125 74.21875 
Q 42.671875 74.21875 48.875 69.140625 
Q 55.078125 64.0625 55.078125 55.328125 
Q 55.078125 49.078125 51.53125 44.71875 
Q 48 40.375 41.703125 38.8125 
Q 48.828125 37.15625 52.796875 32.3125 
Q 56.78125 27.484375 56.78125 20.515625 
Q 56.78125 9.90625 50.3125 4.234375 
Q 43.84375 -1.421875 31.78125 -1.421875 
Q 19.734375 -1.421875 13.25 4.234375 
Q 6.78125 9.90625 6.78125 20.515625 
Q 6.78125 27.484375 10.78125 32.3125 
Q 14.796875 37.15625 21.921875 38.8125 
z
M 18.3125 54.390625 
Q 18.3125 48.734375 21.84375 45.5625 
Q 25.390625 42.390625 31.78125 42.390625 
Q 38.140625 42.390625 41.71875 45.5625 
Q 45.3125 48.734375 45.3125 54.390625 
Q 45.3125 60.0625 41.71875 63.234375 
Q 38.140625 66.40625 31.78125 66.40625 
Q 25.390625 66.40625 21.84375 63.234375 
Q 18.3125 60.0625 18.3125 54.390625 
z
" id="DejaVuSans-56"/>
       </defs>
       <use xlink:href="#DejaVuSans-48"/>
       <use x="63.623047" xlink:href="#DejaVuSans-46"/>
       <use x="95.410156" xlink:href="#DejaVuSans-56"/>
      </g>
     </g>
    </g>
    <g id="ytick_6">
     <g id="line2d_12">
      <g>
       <use style="stroke:#000000;stroke-width:0.8;" x="43.78125" xlink:href="#mcac117fc26" y="25.527273"/>
      </g>
     </g>
     <g id="text_6">
      <!-- 1.0 -->
      <g transform="translate(20.878125 29.326491)scale(0.1 -0.1)">
       <defs>
        <path d="M 12.40625 8.296875 
L 28.515625 8.296875 
L 28.515625 63.921875 
L 10.984375 60.40625 
L 10.984375 69.390625 
L 28.421875 72.90625 
L 38.28125 72.90625 
L 38.28125 8.296875 
L 54.390625 8.296875 
L 54.390625 0 
L 12.40625 0 
z
" id="DejaVuSans-49"/>
       </defs>
       <use xlink:href="#DejaVuSans-49"/>
       <use x="63.623047" xlink:href="#DejaVuSans-46"/>
       <use x="95.410156" xlink:href="#DejaVuSans-48"/>
      </g>
     </g>
    </g>
    <g id="text_7">
     <!-- Response, e.g. overturning moment -->
     <g transform="translate(14.798437 197.953125)rotate(-90)scale(0.1 -0.1)">
      <defs>
       <path d="M 44.390625 34.1875 
Q 47.5625 33.109375 50.5625 29.59375 
Q 53.5625 26.078125 56.59375 19.921875 
L 66.609375 0 
L 56 0 
L 46.6875 18.703125 
Q 43.0625 26.03125 39.671875 28.421875 
Q 36.28125 30.8125 30.421875 30.8125 
L 19.671875 30.8125 
L 19.671875 0 
L 9.8125 0 
L 9.8125 72.90625 
L 32.078125 72.90625 
Q 44.578125 72.90625 50.734375 67.671875 
Q 56.890625 62.453125 56.890625 51.90625 
Q 56.890625 45.015625 53.6875 40.46875 
Q 50.484375 35.9375 44.390625 34.1875 
z
M 19.671875 64.796875 
L 19.671875 38.921875 
L 32.078125 38.921875 
Q 39.203125 38.921875 42.84375 42.21875 
Q 46.484375 45.515625 46.484375 51.90625 
Q 46.484375 58.296875 42.84375 61.546875 
Q 39.203125 64.796875 32.078125 64.796875 
z
" id="DejaVuSans-82"/>
       <path d="M 56.203125 29.59375 
L 56.203125 25.203125 
L 14.890625 25.203125 
Q 15.484375 15.921875 20.484375 11.0625 
Q 25.484375 6.203125 34.421875 6.203125 
Q 39.59375 6.203125 44.453125 7.46875 
Q 49.3125 8.734375 54.109375 11.28125 
L 54.109375 2.78125 
Q 49.265625 0.734375 44.1875 -0.34375 
Q 39.109375 -1.421875 33.890625 -1.421875 
Q 20.796875 -1.421875 13.15625 6.1875 
Q 5.515625 13.8125 5.515625 26.8125 
Q 5.515625 40.234375 12.765625 48.109375 
Q 20.015625 56 32.328125 56 
Q 43.359375 56 49.78125 48.890625 
Q 56.203125 41.796875 56.203125 29.59375 
z
M 47.21875 32.234375 
Q 47.125 39.59375 43.09375 43.984375 
Q 39.0625 48.390625 32.421875 48.390625 
Q 24.90625 48.390625 20.390625 44.140625 
Q 15.875 39.890625 15.1875 32.171875 
z
" id="DejaVuSans-101"/>
       <path d="M 44.28125 53.078125 
L 44.28125 44.578125 
Q 40.484375 46.53125 36.375 47.5 
Q 32.28125 48.484375 27.875 48.484375 
Q 21.1875 48.484375 17.84375 46.4375 
Q 14.5 44.390625 14.5 40.28125 
Q 14.5 37.15625 16.890625 35.375 
Q 19.28125 33.59375 26.515625 31.984375 
L 29.59375 31.296875 
Q 39.15625 29.25 43.1875 25.515625 
Q 47.21875 21.78125 47.21875 15.09375 
Q 47.21875 7.46875 41.1875 3.015625 
Q 35.15625 -1.421875 24.609375 -1.421875 
Q 20.21875 -1.421875 15.453125 -0.5625 
Q 10.6875 0.296875 5.421875 2 
L 5.421875 11.28125 
Q 10.40625 8.6875 15.234375 7.390625 
Q 20.0625 6.109375 24.8125 6.109375 
Q 31.15625 6.109375 34.5625 8.28125 
Q 37.984375 10.453125 37.984375 14.40625 
Q 37.984375 18.0625 35.515625 20.015625 
Q 33.0625 21.96875 24.703125 23.78125 
L 21.578125 24.515625 
Q 13.234375 26.265625 9.515625 29.90625 
Q 5.8125 33.546875 5.8125 39.890625 
Q 5.8125 47.609375 11.28125 51.796875 
Q 16.75 56 26.8125 56 
Q 31.78125 56 36.171875 55.265625 
Q 40.578125 54.546875 44.28125 53.078125 
z
" id="DejaVuSans-115"/>
       <path d="M 18.109375 8.203125 
L 18.109375 -20.796875 
L 9.078125 -20.796875 
L 9.078125 54.6875 
L 18.109375 54.6875 
L 18.109375 46.390625 
Q 20.953125 51.265625 25.265625 53.625 
Q 29.59375 56 35.59375 56 
Q 45.5625 56 51.78125 48.09375 
Q 58.015625 40.1875 58.015625 27.296875 
Q 58.015625 14.40625 51.78125 6.484375 
Q 45.5625 -1.421875 35.59375 -1.421875 
Q 29.59375 -1.421875 25.265625 0.953125 
Q 20.953125 3.328125 18.109375 8.203125 
z
M 48.6875 27.296875 
Q 48.6875 37.203125 44.609375 42.84375 
Q 40.53125 48.484375 33.40625 48.484375 
Q 26.265625 48.484375 22.1875 42.84375 
Q 18.109375 37.203125 18.109375 27.296875 
Q 18.109375 17.390625 22.1875 11.75 
Q 26.265625 6.109375 33.40625 6.109375 
Q 40.53125 6.109375 44.609375 11.75 
Q 48.6875 17.390625 48.6875 27.296875 
z
" id="DejaVuSans-112"/>
       <path d="M 30.609375 48.390625 
Q 23.390625 48.390625 19.1875 42.75 
Q 14.984375 37.109375 14.984375 27.296875 
Q 14.984375 17.484375 19.15625 11.84375 
Q 23.34375 6.203125 30.609375 6.203125 
Q 37.796875 6.203125 41.984375 11.859375 
Q 46.1875 17.53125 46.1875 27.296875 
Q 46.1875 37.015625 41.984375 42.703125 
Q 37.796875 48.390625 30.609375 48.390625 
z
M 30.609375 56 
Q 42.328125 56 49.015625 48.375 
Q 55.71875 40.765625 55.71875 27.296875 
Q 55.71875 13.875 49.015625 6.21875 
Q 42.328125 -1.421875 30.609375 -1.421875 
Q 18.84375 -1.421875 12.171875 6.21875 
Q 5.515625 13.875 5.515625 27.296875 
Q 5.515625 40.765625 12.171875 48.375 
Q 18.84375 56 30.609375 56 
z
" id="DejaVuSans-111"/>
       <path d="M 54.890625 33.015625 
L 54.890625 0 
L 45.90625 0 
L 45.90625 32.71875 
Q 45.90625 40.484375 42.875 44.328125 
Q 39.84375 48.1875 33.796875 48.1875 
Q 26.515625 48.1875 22.3125 43.546875 
Q 18.109375 38.921875 18.109375 30.90625 
L 18.109375 0 
L 9.078125 0 
L 9.078125 54.6875 
L 18.109375 54.6875 
L 18.109375 46.1875 
Q 21.34375 51.125 25.703125 53.5625 
Q 30.078125 56 35.796875 56 
Q 45.21875 56 50.046875 50.171875 
Q 54.890625 44.34375 54.890625 33.015625 
z
" id="DejaVuSans-110"/>
       <path d="M 11.71875 12.40625 
L 22.015625 12.40625 
L 22.015625 4 
L 14.015625 -11.625 
L 7.71875 -11.625 
L 11.71875 4 
z
" id="DejaVuSans-44"/>
       <path id="DejaVuSans-32"/>
       <path d="M 45.40625 27.984375 
Q 45.40625 37.75 41.375 43.109375 
Q 37.359375 48.484375 30.078125 48.484375 
Q 22.859375 48.484375 18.828125 43.109375 
Q 14.796875 37.75 14.796875 27.984375 
Q 14.796875 18.265625 18.828125 12.890625 
Q 22.859375 7.515625 30.078125 7.515625 
Q 37.359375 7.515625 41.375 12.890625 
Q 45.40625 18.265625 45.40625 27.984375 
z
M 54.390625 6.78125 
Q 54.390625 -7.171875 48.1875 -13.984375 
Q 42 -20.796875 29.203125 -20.796875 
Q 24.46875 -20.796875 20.265625 -20.09375 
Q 16.0625 -19.390625 12.109375 -17.921875 
L 12.109375 -9.1875 
Q 16.0625 -11.328125 19.921875 -12.34375 
Q 23.78125 -13.375 27.78125 -13.375 
Q 36.625 -13.375 41.015625 -8.765625 
Q 45.40625 -4.15625 45.40625 5.171875 
L 45.40625 9.625 
Q 42.625 4.78125 38.28125 2.390625 
Q 33.9375 0 27.875 0 
Q 17.828125 0 11.671875 7.65625 
Q 5.515625 15.328125 5.515625 27.984375 
Q 5.515625 40.671875 11.671875 48.328125 
Q 17.828125 56 27.875 56 
Q 33.9375 56 38.28125 53.609375 
Q 42.625 51.21875 45.40625 46.390625 
L 45.40625 54.6875 
L 54.390625 54.6875 
z
" id="DejaVuSans-103"/>
       <path d="M 2.984375 54.6875 
L 12.5 54.6875 
L 29.59375 8.796875 
L 46.6875 54.6875 
L 56.203125 54.6875 
L 35.6875 0 
L 23.484375 0 
z
" id="DejaVuSans-118"/>
       <path d="M 41.109375 46.296875 
Q 39.59375 47.171875 37.8125 47.578125 
Q 36.03125 48 33.890625 48 
Q 26.265625 48 22.1875 43.046875 
Q 18.109375 38.09375 18.109375 28.8125 
L 18.109375 0 
L 9.078125 0 
L 9.078125 54.6875 
L 18.109375 54.6875 
L 18.109375 46.1875 
Q 20.953125 51.171875 25.484375 53.578125 
Q 30.03125 56 36.53125 56 
Q 37.453125 56 38.578125 55.875 
Q 39.703125 55.765625 41.0625 55.515625 
z
" id="DejaVuSans-114"/>
       <path d="M 18.3125 70.21875 
L 18.3125 54.6875 
L 36.8125 54.6875 
L 36.8125 47.703125 
L 18.3125 47.703125 
L 18.3125 18.015625 
Q 18.3125 11.328125 20.140625 9.421875 
Q 21.96875 7.515625 27.59375 7.515625 
L 36.8125 7.515625 
L 36.8125 0 
L 27.59375 0 
Q 17.1875 0 13.234375 3.875 
Q 9.28125 7.765625 9.28125 18.015625 
L 9.28125 47.703125 
L 2.6875 47.703125 
L 2.6875 54.6875 
L 9.28125 54.6875 
L 9.28125 70.21875 
z
" id="DejaVuSans-116"/>
       <path d="M 8.5 21.578125 
L 8.5 54.6875 
L 17.484375 54.6875 
L 17.484375 21.921875 
Q 17.484375 14.15625 20.5 10.265625 
Q 23.53125 6.390625 29.59375 6.390625 
Q 36.859375 6.390625 41.078125 11.03125 
Q 45.3125 15.671875 45.3125 23.6875 
L 45.3125 54.6875 
L 54.296875 54.6875 
L 54.296875 0 
L 45.3125 0 
L 45.3125 8.40625 
Q 42.046875 3.421875 37.71875 1 
Q 33.40625 -1.421875 27.6875 -1.421875 
Q 18.265625 -1.421875 13.375 4.4375 
Q 8.5 10.296875 8.5 21.578125 
z
M 31.109375 56 
z
" id="DejaVuSans-117"/>
       <path d="M 9.421875 54.6875 
L 18.40625 54.6875 
L 18.40625 0 
L 9.421875 0 
z
M 9.421875 75.984375 
L 18.40625 75.984375 
L 18.40625 64.59375 
L 9.421875 64.59375 
z
" id="DejaVuSans-105"/>
       <path d="M 52 44.1875 
Q 55.375 50.25 60.0625 53.125 
Q 64.75 56 71.09375 56 
Q 79.640625 56 84.28125 50.015625 
Q 88.921875 44.046875 88.921875 33.015625 
L 88.921875 0 
L 79.890625 0 
L 79.890625 32.71875 
Q 79.890625 40.578125 77.09375 44.375 
Q 74.3125 48.1875 68.609375 48.1875 
Q 61.625 48.1875 57.5625 43.546875 
Q 53.515625 38.921875 53.515625 30.90625 
L 53.515625 0 
L 44.484375 0 
L 44.484375 32.71875 
Q 44.484375 40.625 41.703125 44.40625 
Q 38.921875 48.1875 33.109375 48.1875 
Q 26.21875 48.1875 22.15625 43.53125 
Q 18.109375 38.875 18.109375 30.90625 
L 18.109375 0 
L 9.078125 0 
L 9.078125 54.6875 
L 18.109375 54.6875 
L 18.109375 46.1875 
Q 21.1875 51.21875 25.484375 53.609375 
Q 29.78125 56 35.6875 56 
Q 41.65625 56 45.828125 52.96875 
Q 50 49.953125 52 44.1875 
z
" id="DejaVuSans-109"/>
      </defs>
      <use xlink:href="#DejaVuSans-82"/>
      <use x="64.982422" xlink:href="#DejaVuSans-101"/>
      <use x="126.505859" xlink:href="#DejaVuSans-115"/>
      <use x="178.605469" xlink:href="#DejaVuSans-112"/>
      <use x="242.082031" xlink:href="#DejaVuSans-111"/>
      <use x="303.263672" xlink:href="#DejaVuSans-110"/>
      <use x="366.642578" xlink:href="#DejaVuSans-115"/>
      <use x="418.742188" xlink:href="#DejaVuSans-101"/>
      <use x="480.265625" xlink:href="#DejaVuSans-44"/>
      <use x="512.052734" xlink:href="#DejaVuSans-32"/>
      <use x="543.839844" xlink:href="#DejaVuSans-101"/>
      <use x="605.363281" xlink:href="#DejaVuSans-46"/>
      <use x="637.150391" xlink:href="#DejaVuSans-103"/>
      <use x="700.626953" xlink:href="#DejaVuSans-46"/>
      <use x="732.414062" xlink:href="#DejaVuSans-32"/>
      <use x="764.201172" xlink:href="#DejaVuSans-111"/>
      <use x="825.382812" xlink:href="#DejaVuSans-118"/>
      <use x="884.5625" xlink:href="#DejaVuSans-101"/>
      <use x="946.085938" xlink:href="#DejaVuSans-114"/>
      <use x="987.199219" xlink:href="#DejaVuSans-116"/>
      <use x="1026.408203" xlink:href="#DejaVuSans-117"/>
      <use x="1089.787109" xlink:href="#DejaVuSans-114"/>
      <use x="1129.150391" xlink:href="#DejaVuSans-110"/>
      <use x="1192.529297" xlink:href="#DejaVuSans-105"/>
      <use x="1220.3125" xlink:href="#DejaVuSans-110"/>
      <use x="1283.691406" xlink:href="#DejaVuSans-103"/>
      <use x="1347.167969" xlink:href="#DejaVuSans-32"/>
      <use x="1378.955078" xlink:href="#DejaVuSans-109"/>
      <use x="1476.367188" xlink:href="#DejaVuSans-111"/>
      <use x="1537.548828" xlink:href="#DejaVuSans-109"/>
      <use x="1634.960938" xlink:href="#DejaVuSans-101"/>
      <use x="1696.484375" xlink:href="#DejaVuSans-110"/>
      <use x="1759.863281" xlink:href="#DejaVuSans-116"/>
     </g>
    </g>
   </g>
   <g id="line2d_13">
    <path clip-path="url(#p56863d109f)" d="M 43.78125 208.8 
L 46.628189 205.099682 
L 49.475128 201.104541 
L 52.322066 196.828388 
L 55.169005 192.285038 
L 58.015944 187.488303 
L 60.862883 182.451994 
L 63.709821 177.189926 
L 66.55676 171.71591 
L 69.403699 166.04376 
L 72.250638 160.187288 
L 75.097577 154.160306 
L 77.944515 147.976628 
L 80.791454 141.650066 
L 83.638393 135.194432 
L 86.485332 128.62354 
L 89.33227 121.951202 
L 92.179209 115.191231 
L 95.026148 108.357439 
L 97.873087 101.463639 
L 100.720026 94.523644 
L 103.566964 87.551267 
L 106.413903 80.560319 
L 109.260842 73.564615 
L 112.107781 66.577966 
L 114.954719 59.614185 
L 117.801658 52.687085 
L 120.648597 45.810479 
L 123.495536 39.029717 
L 126.342474 32.945782 
L 129.189413 28.583469 
L 132.036352 26.216212 
L 134.883291 25.527273 
L 137.73023 26.184727 
L 140.577168 27.856654 
L 143.424107 30.211132 
L 146.271046 32.933227 
L 149.117985 35.87166 
L 151.964923 38.966609 
L 154.811862 42.159252 
L 157.658801 45.390767 
L 160.50574 48.602332 
L 163.352679 51.735125 
L 166.199617 54.730324 
L 169.046556 57.529106 
L 171.893495 60.072649 
L 174.740434 62.302132 
L 177.587372 64.158732 
L 180.434311 65.583627 
L 183.28125 66.517995 
L 183.83925 167.715419 
L 189.41925 164.376535 
L 194.99925 160.907225 
L 200.57925 157.30749 
L 206.15925 153.57733 
L 211.73925 149.716745 
L 217.31925 145.725735 
L 222.89925 141.6043 
L 228.47925 137.352439 
L 234.05925 132.970153 
L 239.63925 128.457442 
L 245.21925 123.814306 
L 250.79925 119.040745 
L 256.37925 114.136759 
L 261.95925 109.102347 
L 267.53925 103.93751 
L 273.11925 98.642248 
L 278.69925 93.216561 
L 284.27925 87.660449 
L 289.85925 81.973911 
L 295.43925 76.156949 
L 301.01925 70.209561 
L 306.59925 64.131748 
L 312.17925 57.92351 
L 317.75925 51.584846 
L 323.33925 45.115758 
" style="fill:none;stroke:#000000;stroke-linecap:square;stroke-width:1.5;"/>
   </g>
   <g id="line2d_14">
    <path clip-path="url(#p56863d109f)" d="M 183.28125 208.8 
L 183.28125 7.2 
" style="fill:none;stroke:#000000;stroke-dasharray:2.96,1.28;stroke-dashoffset:0;stroke-width:0.8;"/>
   </g>
   <g id="patch_3">
    <path d="M 43.78125 208.8 
L 43.78125 7.2 
" style="fill:none;stroke:#000000;stroke-linecap:square;stroke-linejoin:miter;stroke-width:0.8;"/>
   </g>
   <g id="patch_4">
    <path d="M 43.78125 208.8 
L 322.78125 208.8 
" style="fill:none;stroke:#000000;stroke-linecap:square;stroke-linejoin:miter;stroke-width:0.8;"/>
   </g>
   <g id="text_8">
    <!-- Cut-out wind speed -->
    <g transform="translate(180.99 202.031193)rotate(-90)scale(0.08 -0.08)">
     <defs>
      <path d="M 64.40625 67.28125 
L 64.40625 56.890625 
Q 59.421875 61.53125 53.78125 63.8125 
Q 48.140625 66.109375 41.796875 66.109375 
Q 29.296875 66.109375 22.65625 58.46875 
Q 16.015625 50.828125 16.015625 36.375 
Q 16.015625 21.96875 22.65625 14.328125 
Q 29.296875 6.6875 41.796875 6.6875 
Q 48.140625 6.6875 53.78125 8.984375 
Q 59.421875 11.28125 64.40625 15.921875 
L 64.40625 5.609375 
Q 59.234375 2.09375 53.4375 0.328125 
Q 47.65625 -1.421875 41.21875 -1.421875 
Q 24.65625 -1.421875 15.125 8.703125 
Q 5.609375 18.84375 5.609375 36.375 
Q 5.609375 53.953125 15.125 64.078125 
Q 24.65625 74.21875 41.21875 74.21875 
Q 47.75 74.21875 53.53125 72.484375 
Q 59.328125 70.75 64.40625 67.28125 
z
" id="DejaVuSans-67"/>
      <path d="M 4.890625 31.390625 
L 31.203125 31.390625 
L 31.203125 23.390625 
L 4.890625 23.390625 
z
" id="DejaVuSans-45"/>
      <path d="M 4.203125 54.6875 
L 13.1875 54.6875 
L 24.421875 12.015625 
L 35.59375 54.6875 
L 46.1875 54.6875 
L 57.421875 12.015625 
L 68.609375 54.6875 
L 77.59375 54.6875 
L 63.28125 0 
L 52.6875 0 
L 40.921875 44.828125 
L 29.109375 0 
L 18.5 0 
z
" id="DejaVuSans-119"/>
      <path d="M 45.40625 46.390625 
L 45.40625 75.984375 
L 54.390625 75.984375 
L 54.390625 0 
L 45.40625 0 
L 45.40625 8.203125 
Q 42.578125 3.328125 38.25 0.953125 
Q 33.9375 -1.421875 27.875 -1.421875 
Q 17.96875 -1.421875 11.734375 6.484375 
Q 5.515625 14.40625 5.515625 27.296875 
Q 5.515625 40.1875 11.734375 48.09375 
Q 17.96875 56 27.875 56 
Q 33.9375 56 38.25 53.625 
Q 42.578125 51.265625 45.40625 46.390625 
z
M 14.796875 27.296875 
Q 14.796875 17.390625 18.875 11.75 
Q 22.953125 6.109375 30.078125 6.109375 
Q 37.203125 6.109375 41.296875 11.75 
Q 45.40625 17.390625 45.40625 27.296875 
Q 45.40625 37.203125 41.296875 42.84375 
Q 37.203125 48.484375 30.078125 48.484375 
Q 22.953125 48.484375 18.875 42.84375 
Q 14.796875 37.203125 14.796875 27.296875 
z
" id="DejaVuSans-100"/>
     </defs>
     <use xlink:href="#DejaVuSans-67"/>
     <use x="69.824219" xlink:href="#DejaVuSans-117"/>
     <use x="133.203125" xlink:href="#DejaVuSans-116"/>
     <use x="172.412109" xlink:href="#DejaVuSans-45"/>
     <use x="210.371094" xlink:href="#DejaVuSans-111"/>
     <use x="271.552734" xlink:href="#DejaVuSans-117"/>
     <use x="334.931641" xlink:href="#DejaVuSans-116"/>
     <use x="374.140625" xlink:href="#DejaVuSans-32"/>
     <use x="405.927734" xlink:href="#DejaVuSans-119"/>
     <use x="487.714844" xlink:href="#DejaVuSans-105"/>
     <use x="515.498047" xlink:href="#DejaVuSans-110"/>
     <use x="578.876953" xlink:href="#DejaVuSans-100"/>
     <use x="642.353516" xlink:href="#DejaVuSans-32"/>
     <use x="674.140625" xlink:href="#DejaVuSans-115"/>
     <use x="726.240234" xlink:href="#DejaVuSans-112"/>
     <use x="789.716797" xlink:href="#DejaVuSans-101"/>
     <use x="851.240234" xlink:href="#DejaVuSans-101"/>
     <use x="912.763672" xlink:href="#DejaVuSans-100"/>
    </g>
   </g>
  </g>
  <g id="axes_2">
   <g id="patch_5">
    <path d="M 43.78125 450.72 
L 322.78125 450.72 
L 322.78125 249.12 
L 43.78125 249.12 
z
" style="fill:#ffffff;"/>
   </g>
   <g id="patch_6">
    <path clip-path="url(#pf8d0a5a108)" d="M 43.78125 249.12 
L 43.78125 286.92 
L 46.628189 287.470335 
L 49.475128 288.192568 
L 52.322066 289.084864 
L 55.169005 290.145391 
L 58.015944 291.372317 
L 60.862883 292.763808 
L 63.709821 294.318033 
L 66.55676 296.033158 
L 69.403699 297.90735 
L 72.250638 299.938776 
L 75.097577 302.125605 
L 77.944515 304.466002 
L 80.791454 306.958136 
L 83.638393 309.600173 
L 86.485332 312.390281 
L 89.33227 315.326627 
L 92.179209 318.407379 
L 95.026148 321.630703 
L 97.873087 324.994766 
L 100.720026 328.497736 
L 103.566964 332.137781 
L 106.413903 335.913067 
L 109.260842 339.821761 
L 112.107781 343.862032 
L 114.954719 348.032045 
L 117.801658 352.329969 
L 120.648597 356.75397 
L 123.495536 361.288017 
L 126.342474 365.665915 
L 129.189413 369.40759 
L 132.036352 372.026078 
L 134.883291 373.064989 
L 137.73023 372.460074 
L 140.577168 370.418682 
L 143.424107 367.153609 
L 146.271046 362.877646 
L 149.117985 357.803586 
L 151.964923 352.144224 
L 154.811862 346.11235 
L 157.658801 339.920759 
L 160.50574 333.782244 
L 163.352679 327.909597 
L 166.199617 322.515612 
L 169.046556 317.813081 
L 171.893495 314.014798 
L 174.740434 311.333555 
L 177.587372 309.982146 
L 180.434311 310.173363 
L 183.28125 312.12 
L 183.33705 261.72 
L 188.337884 262.304353 
L 193.338719 262.861003 
L 198.339553 263.389949 
L 203.340388 263.891193 
L 208.341222 264.364733 
L 213.342057 264.81057 
L 218.342891 265.235497 
L 223.343726 265.736806 
L 228.34456 266.346247 
L 233.345395 267.063819 
L 238.346229 267.889524 
L 243.347064 268.82336 
L 248.347898 269.865328 
L 253.348733 271.015427 
L 258.349567 272.455245 
L 263.350402 275.250341 
L 268.351236 279.574376 
L 273.352071 285.42735 
L 278.352905 292.809262 
L 283.35374 301.720113 
L 288.354574 312.159902 
L 293.355409 324.128629 
L 298.356243 337.626295 
L 303.357078 352.6529 
L 308.357912 369.208443 
L 313.358747 387.292924 
L 318.359581 406.906344 
L 323.360416 428.048703 
L 328.36125 450.72 
L 322.78125 249.12 
z
" style="fill:#fa8072;"/>
   </g>
   <g id="matplotlib.axis_3">
    <g id="xtick_7">
     <g id="line2d_15">
      <g>
       <use style="stroke:#000000;stroke-width:0.8;" x="43.78125" xlink:href="#mf3adc7ae40" y="450.72"/>
      </g>
     </g>
     <g id="text_9">
      <!-- 0 -->
      <g transform="translate(40.6 465.318437)scale(0.1 -0.1)">
       <use xlink:href="#DejaVuSans-48"/>
      </g>
     </g>
    </g>
    <g id="xtick_8">
     <g id="line2d_16">
      <g>
       <use style="stroke:#000000;stroke-width:0.8;" x="99.58125" xlink:href="#mf3adc7ae40" y="450.72"/>
      </g>
     </g>
     <g id="text_10">
      <!-- 10 -->
      <g transform="translate(93.21875 465.318437)scale(0.1 -0.1)">
       <use xlink:href="#DejaVuSans-49"/>
       <use x="63.623047" xlink:href="#DejaVuSans-48"/>
      </g>
     </g>
    </g>
    <g id="xtick_9">
     <g id="line2d_17">
      <g>
       <use style="stroke:#000000;stroke-width:0.8;" x="155.38125" xlink:href="#mf3adc7ae40" y="450.72"/>
      </g>
     </g>
     <g id="text_11">
      <!-- 20 -->
      <g transform="translate(149.01875 465.318437)scale(0.1 -0.1)">
       <use xlink:href="#DejaVuSans-50"/>
       <use x="63.623047" xlink:href="#DejaVuSans-48"/>
      </g>
     </g>
    </g>
    <g id="xtick_10">
     <g id="line2d_18">
      <g>
       <use style="stroke:#000000;stroke-width:0.8;" x="211.18125" xlink:href="#mf3adc7ae40" y="450.72"/>
      </g>
     </g>
     <g id="text_12">
      <!-- 30 -->
      <g transform="translate(204.81875 465.318437)scale(0.1 -0.1)">
       <defs>
        <path d="M 40.578125 39.3125 
Q 47.65625 37.796875 51.625 33 
Q 55.609375 28.21875 55.609375 21.1875 
Q 55.609375 10.40625 48.1875 4.484375 
Q 40.765625 -1.421875 27.09375 -1.421875 
Q 22.515625 -1.421875 17.65625 -0.515625 
Q 12.796875 0.390625 7.625 2.203125 
L 7.625 11.71875 
Q 11.71875 9.328125 16.59375 8.109375 
Q 21.484375 6.890625 26.8125 6.890625 
Q 36.078125 6.890625 40.9375 10.546875 
Q 45.796875 14.203125 45.796875 21.1875 
Q 45.796875 27.640625 41.28125 31.265625 
Q 36.765625 34.90625 28.71875 34.90625 
L 20.21875 34.90625 
L 20.21875 43.015625 
L 29.109375 43.015625 
Q 36.375 43.015625 40.234375 45.921875 
Q 44.09375 48.828125 44.09375 54.296875 
Q 44.09375 59.90625 40.109375 62.90625 
Q 36.140625 65.921875 28.71875 65.921875 
Q 24.65625 65.921875 20.015625 65.03125 
Q 15.375 64.15625 9.8125 62.3125 
L 9.8125 71.09375 
Q 15.4375 72.65625 20.34375 73.4375 
Q 25.25 74.21875 29.59375 74.21875 
Q 40.828125 74.21875 47.359375 69.109375 
Q 53.90625 64.015625 53.90625 55.328125 
Q 53.90625 49.265625 50.4375 45.09375 
Q 46.96875 40.921875 40.578125 39.3125 
z
" id="DejaVuSans-51"/>
       </defs>
       <use xlink:href="#DejaVuSans-51"/>
       <use x="63.623047" xlink:href="#DejaVuSans-48"/>
      </g>
     </g>
    </g>
    <g id="xtick_11">
     <g id="line2d_19">
      <g>
       <use style="stroke:#000000;stroke-width:0.8;" x="266.98125" xlink:href="#mf3adc7ae40" y="450.72"/>
      </g>
     </g>
     <g id="text_13">
      <!-- 40 -->
      <g transform="translate(260.61875 465.318437)scale(0.1 -0.1)">
       <use xlink:href="#DejaVuSans-52"/>
       <use x="63.623047" xlink:href="#DejaVuSans-48"/>
      </g>
     </g>
    </g>
    <g id="xtick_12">
     <g id="line2d_20">
      <g>
       <use style="stroke:#000000;stroke-width:0.8;" x="322.78125" xlink:href="#mf3adc7ae40" y="450.72"/>
      </g>
     </g>
     <g id="text_14">
      <!-- 50 -->
      <g transform="translate(316.41875 465.318437)scale(0.1 -0.1)">
       <defs>
        <path d="M 10.796875 72.90625 
L 49.515625 72.90625 
L 49.515625 64.59375 
L 19.828125 64.59375 
L 19.828125 46.734375 
Q 21.96875 47.46875 24.109375 47.828125 
Q 26.265625 48.1875 28.421875 48.1875 
Q 40.625 48.1875 47.75 41.5 
Q 54.890625 34.8125 54.890625 23.390625 
Q 54.890625 11.625 47.5625 5.09375 
Q 40.234375 -1.421875 26.90625 -1.421875 
Q 22.3125 -1.421875 17.546875 -0.640625 
Q 12.796875 0.140625 7.71875 1.703125 
L 7.71875 11.625 
Q 12.109375 9.234375 16.796875 8.0625 
Q 21.484375 6.890625 26.703125 6.890625 
Q 35.15625 6.890625 40.078125 11.328125 
Q 45.015625 15.765625 45.015625 23.390625 
Q 45.015625 31 40.078125 35.4375 
Q 35.15625 39.890625 26.703125 39.890625 
Q 22.75 39.890625 18.8125 39.015625 
Q 14.890625 38.140625 10.796875 36.28125 
z
" id="DejaVuSans-53"/>
       </defs>
       <use xlink:href="#DejaVuSans-53"/>
       <use x="63.623047" xlink:href="#DejaVuSans-48"/>
      </g>
     </g>
    </g>
    <g id="text_15">
     <!-- 10-min mean wind speed (m/s) -->
     <g transform="translate(105.1625 478.996562)scale(0.1 -0.1)">
      <defs>
       <path d="M 34.28125 27.484375 
Q 23.390625 27.484375 19.1875 25 
Q 14.984375 22.515625 14.984375 16.5 
Q 14.984375 11.71875 18.140625 8.90625 
Q 21.296875 6.109375 26.703125 6.109375 
Q 34.1875 6.109375 38.703125 11.40625 
Q 43.21875 16.703125 43.21875 25.484375 
L 43.21875 27.484375 
z
M 52.203125 31.203125 
L 52.203125 0 
L 43.21875 0 
L 43.21875 8.296875 
Q 40.140625 3.328125 35.546875 0.953125 
Q 30.953125 -1.421875 24.3125 -1.421875 
Q 15.921875 -1.421875 10.953125 3.296875 
Q 6 8.015625 6 15.921875 
Q 6 25.140625 12.171875 29.828125 
Q 18.359375 34.515625 30.609375 34.515625 
L 43.21875 34.515625 
L 43.21875 35.40625 
Q 43.21875 41.609375 39.140625 45 
Q 35.0625 48.390625 27.6875 48.390625 
Q 23 48.390625 18.546875 47.265625 
Q 14.109375 46.140625 10.015625 43.890625 
L 10.015625 52.203125 
Q 14.9375 54.109375 19.578125 55.046875 
Q 24.21875 56 28.609375 56 
Q 40.484375 56 46.34375 49.84375 
Q 52.203125 43.703125 52.203125 31.203125 
z
" id="DejaVuSans-97"/>
       <path d="M 31 75.875 
Q 24.46875 64.65625 21.28125 53.65625 
Q 18.109375 42.671875 18.109375 31.390625 
Q 18.109375 20.125 21.3125 9.0625 
Q 24.515625 -2 31 -13.1875 
L 23.1875 -13.1875 
Q 15.875 -1.703125 12.234375 9.375 
Q 8.59375 20.453125 8.59375 31.390625 
Q 8.59375 42.28125 12.203125 53.3125 
Q 15.828125 64.359375 23.1875 75.875 
z
" id="DejaVuSans-40"/>
       <path d="M 25.390625 72.90625 
L 33.6875 72.90625 
L 8.296875 -9.28125 
L 0 -9.28125 
z
" id="DejaVuSans-47"/>
       <path d="M 8.015625 75.875 
L 15.828125 75.875 
Q 23.140625 64.359375 26.78125 53.3125 
Q 30.421875 42.28125 30.421875 31.390625 
Q 30.421875 20.453125 26.78125 9.375 
Q 23.140625 -1.703125 15.828125 -13.1875 
L 8.015625 -13.1875 
Q 14.5 -2 17.703125 9.0625 
Q 20.90625 20.125 20.90625 31.390625 
Q 20.90625 42.671875 17.703125 53.65625 
Q 14.5 64.65625 8.015625 75.875 
z
" id="DejaVuSans-41"/>
      </defs>
      <use xlink:href="#DejaVuSans-49"/>
      <use x="63.623047" xlink:href="#DejaVuSans-48"/>
      <use x="127.246094" xlink:href="#DejaVuSans-45"/>
      <use x="163.330078" xlink:href="#DejaVuSans-109"/>
      <use x="260.742188" xlink:href="#DejaVuSans-105"/>
      <use x="288.525391" xlink:href="#DejaVuSans-110"/>
      <use x="351.904297" xlink:href="#DejaVuSans-32"/>
      <use x="383.691406" xlink:href="#DejaVuSans-109"/>
      <use x="481.103516" xlink:href="#DejaVuSans-101"/>
      <use x="542.626953" xlink:href="#DejaVuSans-97"/>
      <use x="603.90625" xlink:href="#DejaVuSans-110"/>
      <use x="667.285156" xlink:href="#DejaVuSans-32"/>
      <use x="699.072266" xlink:href="#DejaVuSans-119"/>
      <use x="780.859375" xlink:href="#DejaVuSans-105"/>
      <use x="808.642578" xlink:href="#DejaVuSans-110"/>
      <use x="872.021484" xlink:href="#DejaVuSans-100"/>
      <use x="935.498047" xlink:href="#DejaVuSans-32"/>
      <use x="967.285156" xlink:href="#DejaVuSans-115"/>
      <use x="1019.384766" xlink:href="#DejaVuSans-112"/>
      <use x="1082.861328" xlink:href="#DejaVuSans-101"/>
      <use x="1144.384766" xlink:href="#DejaVuSans-101"/>
      <use x="1205.908203" xlink:href="#DejaVuSans-100"/>
      <use x="1269.384766" xlink:href="#DejaVuSans-32"/>
      <use x="1301.171875" xlink:href="#DejaVuSans-40"/>
      <use x="1340.185547" xlink:href="#DejaVuSans-109"/>
      <use x="1437.597656" xlink:href="#DejaVuSans-47"/>
      <use x="1471.289062" xlink:href="#DejaVuSans-115"/>
      <use x="1523.388672" xlink:href="#DejaVuSans-41"/>
     </g>
    </g>
   </g>
   <g id="matplotlib.axis_4">
    <g id="ytick_7">
     <g id="line2d_21">
      <g>
       <use style="stroke:#000000;stroke-width:0.8;" x="43.78125" xlink:href="#mcac117fc26" y="450.72"/>
      </g>
     </g>
     <g id="text_16">
      <!-- 0 -->
      <g transform="translate(30.41875 454.519219)scale(0.1 -0.1)">
       <use xlink:href="#DejaVuSans-48"/>
      </g>
     </g>
    </g>
    <g id="ytick_8">
     <g id="line2d_22">
      <g>
       <use style="stroke:#000000;stroke-width:0.8;" x="43.78125" xlink:href="#mcac117fc26" y="425.52"/>
      </g>
     </g>
     <g id="text_17">
      <!-- 2 -->
      <g transform="translate(30.41875 429.319219)scale(0.1 -0.1)">
       <use xlink:href="#DejaVuSans-50"/>
      </g>
     </g>
    </g>
    <g id="ytick_9">
     <g id="line2d_23">
      <g>
       <use style="stroke:#000000;stroke-width:0.8;" x="43.78125" xlink:href="#mcac117fc26" y="400.32"/>
      </g>
     </g>
     <g id="text_18">
      <!-- 4 -->
      <g transform="translate(30.41875 404.119219)scale(0.1 -0.1)">
       <use xlink:href="#DejaVuSans-52"/>
      </g>
     </g>
    </g>
    <g id="ytick_10">
     <g id="line2d_24">
      <g>
       <use style="stroke:#000000;stroke-width:0.8;" x="43.78125" xlink:href="#mcac117fc26" y="375.12"/>
      </g>
     </g>
     <g id="text_19">
      <!-- 6 -->
      <g transform="translate(30.41875 378.919219)scale(0.1 -0.1)">
       <use xlink:href="#DejaVuSans-54"/>
      </g>
     </g>
    </g>
    <g id="ytick_11">
     <g id="line2d_25">
      <g>
       <use style="stroke:#000000;stroke-width:0.8;" x="43.78125" xlink:href="#mcac117fc26" y="349.92"/>
      </g>
     </g>
     <g id="text_20">
      <!-- 8 -->
      <g transform="translate(30.41875 353.719219)scale(0.1 -0.1)">
       <use xlink:href="#DejaVuSans-56"/>
      </g>
     </g>
    </g>
    <g id="ytick_12">
     <g id="line2d_26">
      <g>
       <use style="stroke:#000000;stroke-width:0.8;" x="43.78125" xlink:href="#mcac117fc26" y="324.72"/>
      </g>
     </g>
     <g id="text_21">
      <!-- 10 -->
      <g transform="translate(24.05625 328.519219)scale(0.1 -0.1)">
       <use xlink:href="#DejaVuSans-49"/>
       <use x="63.623047" xlink:href="#DejaVuSans-48"/>
      </g>
     </g>
    </g>
    <g id="ytick_13">
     <g id="line2d_27">
      <g>
       <use style="stroke:#000000;stroke-width:0.8;" x="43.78125" xlink:href="#mcac117fc26" y="299.52"/>
      </g>
     </g>
     <g id="text_22">
      <!-- 12 -->
      <g transform="translate(24.05625 303.319219)scale(0.1 -0.1)">
       <use xlink:href="#DejaVuSans-49"/>
       <use x="63.623047" xlink:href="#DejaVuSans-50"/>
      </g>
     </g>
    </g>
    <g id="ytick_14">
     <g id="line2d_28">
      <g>
       <use style="stroke:#000000;stroke-width:0.8;" x="43.78125" xlink:href="#mcac117fc26" y="274.32"/>
      </g>
     </g>
     <g id="text_23">
      <!-- 14 -->
      <g transform="translate(24.05625 278.119219)scale(0.1 -0.1)">
       <use xlink:href="#DejaVuSans-49"/>
       <use x="63.623047" xlink:href="#DejaVuSans-52"/>
      </g>
     </g>
    </g>
    <g id="ytick_15">
     <g id="line2d_29">
      <g>
       <use style="stroke:#000000;stroke-width:0.8;" x="43.78125" xlink:href="#mcac117fc26" y="249.12"/>
      </g>
     </g>
     <g id="text_24">
      <!-- 16 -->
      <g transform="translate(24.05625 252.919219)scale(0.1 -0.1)">
       <use xlink:href="#DejaVuSans-49"/>
       <use x="63.623047" xlink:href="#DejaVuSans-54"/>
      </g>
     </g>
    </g>
    <g id="text_25">
     <!-- Significant wave height (m) -->
     <g transform="translate(17.976562 418.972344)rotate(-90)scale(0.1 -0.1)">
      <defs>
       <path d="M 53.515625 70.515625 
L 53.515625 60.890625 
Q 47.90625 63.578125 42.921875 64.890625 
Q 37.9375 66.21875 33.296875 66.21875 
Q 25.25 66.21875 20.875 63.09375 
Q 16.5 59.96875 16.5 54.203125 
Q 16.5 49.359375 19.40625 46.890625 
Q 22.3125 44.4375 30.421875 42.921875 
L 36.375 41.703125 
Q 47.40625 39.59375 52.65625 34.296875 
Q 57.90625 29 57.90625 20.125 
Q 57.90625 9.515625 50.796875 4.046875 
Q 43.703125 -1.421875 29.984375 -1.421875 
Q 24.8125 -1.421875 18.96875 -0.25 
Q 13.140625 0.921875 6.890625 3.21875 
L 6.890625 13.375 
Q 12.890625 10.015625 18.65625 8.296875 
Q 24.421875 6.59375 29.984375 6.59375 
Q 38.421875 6.59375 43.015625 9.90625 
Q 47.609375 13.234375 47.609375 19.390625 
Q 47.609375 24.75 44.3125 27.78125 
Q 41.015625 30.8125 33.5 32.328125 
L 27.484375 33.5 
Q 16.453125 35.6875 11.515625 40.375 
Q 6.59375 45.0625 6.59375 53.421875 
Q 6.59375 63.09375 13.40625 68.65625 
Q 20.21875 74.21875 32.171875 74.21875 
Q 37.3125 74.21875 42.625 73.28125 
Q 47.953125 72.359375 53.515625 70.515625 
z
" id="DejaVuSans-83"/>
       <path d="M 37.109375 75.984375 
L 37.109375 68.5 
L 28.515625 68.5 
Q 23.6875 68.5 21.796875 66.546875 
Q 19.921875 64.59375 19.921875 59.515625 
L 19.921875 54.6875 
L 34.71875 54.6875 
L 34.71875 47.703125 
L 19.921875 47.703125 
L 19.921875 0 
L 10.890625 0 
L 10.890625 47.703125 
L 2.296875 47.703125 
L 2.296875 54.6875 
L 10.890625 54.6875 
L 10.890625 58.5 
Q 10.890625 67.625 15.140625 71.796875 
Q 19.390625 75.984375 28.609375 75.984375 
z
" id="DejaVuSans-102"/>
       <path d="M 48.78125 52.59375 
L 48.78125 44.1875 
Q 44.96875 46.296875 41.140625 47.34375 
Q 37.3125 48.390625 33.40625 48.390625 
Q 24.65625 48.390625 19.8125 42.84375 
Q 14.984375 37.3125 14.984375 27.296875 
Q 14.984375 17.28125 19.8125 11.734375 
Q 24.65625 6.203125 33.40625 6.203125 
Q 37.3125 6.203125 41.140625 7.25 
Q 44.96875 8.296875 48.78125 10.40625 
L 48.78125 2.09375 
Q 45.015625 0.34375 40.984375 -0.53125 
Q 36.96875 -1.421875 32.421875 -1.421875 
Q 20.0625 -1.421875 12.78125 6.34375 
Q 5.515625 14.109375 5.515625 27.296875 
Q 5.515625 40.671875 12.859375 48.328125 
Q 20.21875 56 33.015625 56 
Q 37.15625 56 41.109375 55.140625 
Q 45.0625 54.296875 48.78125 52.59375 
z
" id="DejaVuSans-99"/>
       <path d="M 54.890625 33.015625 
L 54.890625 0 
L 45.90625 0 
L 45.90625 32.71875 
Q 45.90625 40.484375 42.875 44.328125 
Q 39.84375 48.1875 33.796875 48.1875 
Q 26.515625 48.1875 22.3125 43.546875 
Q 18.109375 38.921875 18.109375 30.90625 
L 18.109375 0 
L 9.078125 0 
L 9.078125 75.984375 
L 18.109375 75.984375 
L 18.109375 46.1875 
Q 21.34375 51.125 25.703125 53.5625 
Q 30.078125 56 35.796875 56 
Q 45.21875 56 50.046875 50.171875 
Q 54.890625 44.34375 54.890625 33.015625 
z
" id="DejaVuSans-104"/>
      </defs>
      <use xlink:href="#DejaVuSans-83"/>
      <use x="63.476562" xlink:href="#DejaVuSans-105"/>
      <use x="91.259766" xlink:href="#DejaVuSans-103"/>
      <use x="154.736328" xlink:href="#DejaVuSans-110"/>
      <use x="218.115234" xlink:href="#DejaVuSans-105"/>
      <use x="245.898438" xlink:href="#DejaVuSans-102"/>
      <use x="281.103516" xlink:href="#DejaVuSans-105"/>
      <use x="308.886719" xlink:href="#DejaVuSans-99"/>
      <use x="363.867188" xlink:href="#DejaVuSans-97"/>
      <use x="425.146484" xlink:href="#DejaVuSans-110"/>
      <use x="488.525391" xlink:href="#DejaVuSans-116"/>
      <use x="527.734375" xlink:href="#DejaVuSans-32"/>
      <use x="559.521484" xlink:href="#DejaVuSans-119"/>
      <use x="641.308594" xlink:href="#DejaVuSans-97"/>
      <use x="702.587891" xlink:href="#DejaVuSans-118"/>
      <use x="761.767578" xlink:href="#DejaVuSans-101"/>
      <use x="823.291016" xlink:href="#DejaVuSans-32"/>
      <use x="855.078125" xlink:href="#DejaVuSans-104"/>
      <use x="918.457031" xlink:href="#DejaVuSans-101"/>
      <use x="979.980469" xlink:href="#DejaVuSans-105"/>
      <use x="1007.763672" xlink:href="#DejaVuSans-103"/>
      <use x="1071.240234" xlink:href="#DejaVuSans-104"/>
      <use x="1134.619141" xlink:href="#DejaVuSans-116"/>
      <use x="1173.828125" xlink:href="#DejaVuSans-32"/>
      <use x="1205.615234" xlink:href="#DejaVuSans-40"/>
      <use x="1244.628906" xlink:href="#DejaVuSans-109"/>
      <use x="1342.041016" xlink:href="#DejaVuSans-41"/>
     </g>
    </g>
   </g>
   <g id="line2d_30">
    <path clip-path="url(#pf8d0a5a108)" d="M 272.207668 315.26261 
L 272.108524 310.602062 
L 271.811181 306.099512 
L 271.315902 301.782881 
L 270.623127 297.680575 
L 269.733474 293.821349 
L 268.647732 290.23412 
L 267.366872 286.947738 
L 265.892035 283.990679 
L 264.224541 281.390685 
L 262.365884 279.174322 
L 260.317736 277.366499 
L 258.08194 275.989942 
L 255.660518 275.064661 
L 253.055667 274.607435 
L 250.269759 274.631334 
L 247.305341 275.145312 
L 244.165139 276.15387 
L 240.852054 277.656808 
L 237.369166 279.64906 
L 233.719736 282.120606 
L 229.907207 285.056461 
L 225.935209 288.436719 
L 221.807563 292.236645 
L 217.528291 296.426818 
L 213.10163 300.973295 
L 203.824257 310.978025 
L 178.400964 339.079926 
L 172.98363 344.79209 
L 167.473153 350.395641 
L 161.878924 355.829282 
L 156.211536 361.03277 
L 150.482965 365.948429 
L 144.706773 370.523017 
L 138.898285 374.709968 
L 133.074771 378.471994 
L 127.255586 381.783955 
L 121.462272 384.635736 
L 115.718607 387.034721 
L 110.05056 389.007158 
L 104.48613 390.597536 
L 99.055047 391.865181 
L 93.788273 392.877868 
L 83.873257 394.401167 
L 63.966481 397.171214 
L 60.962932 397.73161 
L 58.293685 398.350407 
L 55.948436 399.056488 
L 53.910837 399.875595 
L 52.159667 400.826884 
L 50.670212 401.920973 
L 49.415707 403.159629 
L 48.368671 404.536739 
L 47.502066 406.040039 
L 46.790196 407.653076 
L 46.209347 409.357045 
L 45.357875 412.959379 
L 44.807289 416.696647 
L 44.330962 422.27764 
L 44.039284 429.183556 
L 43.870506 439.715446 
L 43.919941 448.640754 
L 44.089663 449.54994 
L 44.330962 449.891087 
L 44.807289 450.127191 
L 45.738175 450.286992 
L 48.368671 450.415888 
L 55.948436 450.475284 
L 70.983021 450.388277 
L 83.873257 450.157506 
L 93.788273 449.826249 
L 104.48613 449.249294 
L 115.718607 448.331214 
L 127.255586 447.01133 
L 138.898285 445.280348 
L 150.482965 443.158803 
L 161.878924 440.662746 
L 167.473153 439.272958 
L 172.98363 437.78469 
L 178.400964 436.193253 
L 183.716778 434.492939 
L 188.923548 432.677331 
L 194.014459 430.739583 
L 198.983279 428.672675 
L 203.824257 426.469634 
L 208.532045 424.123735 
L 213.10163 421.628679 
L 217.528291 418.978755 
L 221.807563 416.168998 
L 225.935209 413.195323 
L 229.907207 410.054667 
L 233.719736 406.745113 
L 237.369166 403.266 
L 240.852054 399.618036 
L 244.165139 395.803386 
L 247.305341 391.825749 
L 250.269759 387.690421 
L 253.055667 383.404339 
L 255.660518 378.976106 
L 258.08194 374.415999 
L 260.317736 369.735957 
L 262.365884 364.949553 
L 264.224541 360.071944 
L 265.892035 355.119817 
L 267.366872 350.111312 
L 268.647732 345.065939 
L 269.733474 340.004497 
L 270.623127 334.948975 
L 271.315902 329.922465 
L 271.811181 324.949073 
L 272.108524 320.053828 
L 272.207668 315.26261 
L 272.207668 315.26261 
" style="fill:none;stroke:#0000ff;stroke-dasharray:5.55,2.4;stroke-dashoffset:0;stroke-width:1.5;"/>
   </g>
   <g id="line2d_31">
    <path clip-path="url(#pf8d0a5a108)" d="M 43.78125 286.92 
L 46.628189 287.470335 
L 49.475128 288.192568 
L 52.322066 289.084864 
L 55.169005 290.145391 
L 58.015944 291.372317 
L 60.862883 292.763808 
L 63.709821 294.318033 
L 66.55676 296.033158 
L 69.403699 297.90735 
L 72.250638 299.938776 
L 75.097577 302.125605 
L 77.944515 304.466002 
L 80.791454 306.958136 
L 83.638393 309.600173 
L 86.485332 312.390281 
L 89.33227 315.326627 
L 92.179209 318.407379 
L 95.026148 321.630703 
L 97.873087 324.994766 
L 100.720026 328.497736 
L 103.566964 332.137781 
L 106.413903 335.913067 
L 109.260842 339.821761 
L 112.107781 343.862032 
L 114.954719 348.032045 
L 117.801658 352.329969 
L 120.648597 356.75397 
L 123.495536 361.288017 
L 126.342474 365.665915 
L 129.189413 369.40759 
L 132.036352 372.026078 
L 134.883291 373.064989 
L 137.73023 372.460074 
L 140.577168 370.418682 
L 143.424107 367.153609 
L 146.271046 362.877646 
L 149.117985 357.803586 
L 151.964923 352.144224 
L 154.811862 346.11235 
L 157.658801 339.920759 
L 160.50574 333.782244 
L 163.352679 327.909597 
L 166.199617 322.515612 
L 169.046556 317.813081 
L 171.893495 314.014798 
L 174.740434 311.333555 
L 177.587372 309.982146 
L 180.434311 310.173363 
L 183.28125 312.12 
L 183.33705 261.72 
L 188.337884 262.304353 
L 193.338719 262.861003 
L 198.339553 263.389949 
L 203.340388 263.891193 
L 208.341222 264.364733 
L 213.342057 264.81057 
L 218.342891 265.235497 
L 223.343726 265.736806 
L 228.34456 266.346247 
L 233.345395 267.063819 
L 238.346229 267.889524 
L 243.347064 268.82336 
L 248.347898 269.865328 
L 253.348733 271.015427 
L 258.349567 272.455245 
L 263.350402 275.250341 
L 268.351236 279.574376 
L 273.352071 285.42735 
L 278.352905 292.809262 
L 283.35374 301.720113 
L 288.354574 312.159902 
L 293.355409 324.128629 
L 298.356243 337.626295 
L 303.357078 352.6529 
L 308.357912 369.208443 
L 313.358747 387.292924 
L 318.359581 406.906344 
L 323.360416 428.048703 
L 328.36125 450.72 
" style="fill:none;stroke:#ff0000;stroke-linecap:square;stroke-width:1.5;"/>
   </g>
   <g id="line2d_32">
    <path clip-path="url(#pf8d0a5a108)" d="M 183.28125 450.72 
L 183.28125 274.32 
" style="fill:none;stroke:#000000;stroke-dasharray:2.96,1.28;stroke-dashoffset:0;stroke-width:0.8;"/>
   </g>
   <g id="patch_7">
    <path d="M 43.78125 450.72 
L 43.78125 249.12 
" style="fill:none;stroke:#000000;stroke-linecap:square;stroke-linejoin:miter;stroke-width:0.8;"/>
   </g>
   <g id="patch_8">
    <path d="M 43.78125 450.72 
L 322.78125 450.72 
" style="fill:none;stroke:#000000;stroke-linecap:square;stroke-linejoin:miter;stroke-width:0.8;"/>
   </g>
   <g id="patch_9">
    <path d="M 99.773492 409.631682 
Q 93.081042 401.950659 87.123052 395.112588 
" style="fill:none;stroke:#0000ff;stroke-linecap:round;"/>
    <path d="M 88.018868 398.576331 
L 87.123052 395.112588 
L 90.431536 396.474181 
" style="fill:none;stroke:#0000ff;stroke-linecap:round;"/>
   </g>
   <g id="text_26">
    <!-- environmental contour -->
    <g style="fill:#0000ff;" transform="translate(60.52125 419.22)scale(0.08 -0.08)">
     <defs>
      <path d="M 9.421875 75.984375 
L 18.40625 75.984375 
L 18.40625 0 
L 9.421875 0 
z
" id="DejaVuSans-108"/>
     </defs>
     <use xlink:href="#DejaVuSans-101"/>
     <use x="61.523438" xlink:href="#DejaVuSans-110"/>
     <use x="124.902344" xlink:href="#DejaVuSans-118"/>
     <use x="184.082031" xlink:href="#DejaVuSans-105"/>
     <use x="211.865234" xlink:href="#DejaVuSans-114"/>
     <use x="250.728516" xlink:href="#DejaVuSans-111"/>
     <use x="311.910156" xlink:href="#DejaVuSans-110"/>
     <use x="375.289062" xlink:href="#DejaVuSans-109"/>
     <use x="472.701172" xlink:href="#DejaVuSans-101"/>
     <use x="534.224609" xlink:href="#DejaVuSans-110"/>
     <use x="597.603516" xlink:href="#DejaVuSans-116"/>
     <use x="636.8125" xlink:href="#DejaVuSans-97"/>
     <use x="698.091797" xlink:href="#DejaVuSans-108"/>
     <use x="725.875" xlink:href="#DejaVuSans-32"/>
     <use x="757.662109" xlink:href="#DejaVuSans-99"/>
     <use x="812.642578" xlink:href="#DejaVuSans-111"/>
     <use x="873.824219" xlink:href="#DejaVuSans-110"/>
     <use x="937.203125" xlink:href="#DejaVuSans-116"/>
     <use x="976.412109" xlink:href="#DejaVuSans-111"/>
     <use x="1037.59375" xlink:href="#DejaVuSans-117"/>
     <use x="1100.972656" xlink:href="#DejaVuSans-114"/>
    </g>
   </g>
   <g id="text_27">
    <!-- failure region -->
    <g transform="translate(106.50875 293.22)scale(0.08 -0.08)">
     <use xlink:href="#DejaVuSans-102"/>
     <use x="35.205078" xlink:href="#DejaVuSans-97"/>
     <use x="96.484375" xlink:href="#DejaVuSans-105"/>
     <use x="124.267578" xlink:href="#DejaVuSans-108"/>
     <use x="152.050781" xlink:href="#DejaVuSans-117"/>
     <use x="215.429688" xlink:href="#DejaVuSans-114"/>
     <use x="254.292969" xlink:href="#DejaVuSans-101"/>
     <use x="315.816406" xlink:href="#DejaVuSans-32"/>
     <use x="347.603516" xlink:href="#DejaVuSans-114"/>
     <use x="386.466797" xlink:href="#DejaVuSans-101"/>
     <use x="447.990234" xlink:href="#DejaVuSans-103"/>
     <use x="511.466797" xlink:href="#DejaVuSans-105"/>
     <use x="539.25" xlink:href="#DejaVuSans-111"/>
     <use x="600.431641" xlink:href="#DejaVuSans-110"/>
    </g>
   </g>
   <g id="patch_10">
    <path d="M 82.089383 337.557154 
Q 87.020137 328.241242 91.427876 319.913487 
" style="fill:none;stroke:#ff0000;stroke-linecap:round;"/>
    <path d="M 88.516784 321.993281 
L 91.427876 319.913487 
L 91.345056 323.490237 
" style="fill:none;stroke:#ff0000;stroke-linecap:round;"/>
   </g>
   <g id="text_28">
    <!-- failure surface -->
    <g style="fill:#ff0000;" transform="translate(49.36125 347.4)scale(0.08 -0.08)">
     <use xlink:href="#DejaVuSans-102"/>
     <use x="35.205078" xlink:href="#DejaVuSans-97"/>
     <use x="96.484375" xlink:href="#DejaVuSans-105"/>
     <use x="124.267578" xlink:href="#DejaVuSans-108"/>
     <use x="152.050781" xlink:href="#DejaVuSans-117"/>
     <use x="215.429688" xlink:href="#DejaVuSans-114"/>
     <use x="254.292969" xlink:href="#DejaVuSans-101"/>
     <use x="315.816406" xlink:href="#DejaVuSans-32"/>
     <use x="347.603516" xlink:href="#DejaVuSans-115"/>
     <use x="399.703125" xlink:href="#DejaVuSans-117"/>
     <use x="463.082031" xlink:href="#DejaVuSans-114"/>
     <use x="504.195312" xlink:href="#DejaVuSans-102"/>
     <use x="539.400391" xlink:href="#DejaVuSans-97"/>
     <use x="600.679688" xlink:href="#DejaVuSans-99"/>
     <use x="655.660156" xlink:href="#DejaVuSans-101"/>
    </g>
   </g>
  </g>
 </g>
 <defs>
  <clipPath id="p56863d109f">
   <rect height="201.6" width="279" x="43.78125" y="7.2"/>
  </clipPath>
  <clipPath id="pf8d0a5a108">
   <rect height="201.6" width="279" x="43.78125" y="249.12"/>
  </clipPath>
 </defs>
</svg>
